<?xml version="1.0" encoding="UTF-8"?>
<!DOCTYPE svg PUBLIC "-//W3C//DTD SVG 1.1//EN" "http://www.w3.org/Graphics/SVG/1.1/DTD/svg11.dtd">
<svg xmlns="http://www.w3.org/2000/svg" version="1.1" width="512px" height="512px" style="shape-rendering:geometricPrecision; text-rendering:geometricPrecision; image-rendering:optimizeQuality; fill-rule:evenodd; clip-rule:evenodd" xmlns:xlink="http://www.w3.org/1999/xlink">
<g><path style="opacity:1" fill="#000000" d="M -0.5,-0.5 C 170.167,-0.5 340.833,-0.5 511.5,-0.5C 511.5,170.167 511.5,340.833 511.5,511.5C 340.833,511.5 170.167,511.5 -0.5,511.5C -0.5,340.833 -0.5,170.167 -0.5,-0.5 Z"/></g>
<g><path style="opacity:1" fill="#975ddf" d="M 292.5,120.5 C 292.5,124.5 292.5,128.5 292.5,132.5C 290.833,132.5 289.167,132.5 287.5,132.5C 287.5,129.833 287.5,127.167 287.5,124.5C 286.325,124.719 285.325,124.386 284.5,123.5C 279.69,115.177 278.523,115.511 281,124.5C 278.897,121.029 276.397,117.862 273.5,115C 271.5,114.667 269.5,114.333 267.5,114C 266.286,112.431 264.619,111.598 262.5,111.5C 257.651,111.912 252.985,112.579 248.5,113.5C 246.283,114.369 243.95,114.702 241.5,114.5C 241.392,112.486 242.058,110.82 243.5,109.5C 251.463,102.931 259.463,103.097 267.5,110C 272.495,109.918 277.495,109.918 282.5,110C 285.091,112.966 288.091,115.466 291.5,117.5C 292.127,118.417 292.461,119.417 292.5,120.5 Z"/></g>
<g><path style="opacity:1" fill="#6633ab" d="M 287.5,132.5 C 286.625,130.432 285.459,128.432 284,126.5C 283.743,130.377 282.743,134.043 281,137.5C 279.989,138.337 278.822,138.67 277.5,138.5C 277.665,135.482 277.498,132.482 277,129.5C 276.583,128.244 275.75,127.577 274.5,127.5C 274.649,126.448 274.483,125.448 274,124.5C 270.787,121.623 267.287,119.123 263.5,117C 260.854,116.503 258.187,116.336 255.5,116.5C 257.631,115.686 259.964,115.186 262.5,115C 262.167,114.667 261.833,114.333 261.5,114C 257.179,113.501 252.846,113.334 248.5,113.5C 252.985,112.579 257.651,111.912 262.5,111.5C 264.619,111.598 266.286,112.431 267.5,114C 269.5,114.333 271.5,114.667 273.5,115C 276.397,117.862 278.897,121.029 281,124.5C 278.523,115.511 279.69,115.177 284.5,123.5C 285.325,124.386 286.325,124.719 287.5,124.5C 287.5,127.167 287.5,129.833 287.5,132.5 Z"/></g>
<g><path style="opacity:1" fill="#9262c9" d="M 228.5,111.5 C 228.144,112.87 227.31,113.87 226,114.5C 222.895,115.367 219.728,115.701 216.5,115.5C 216.5,117.5 216.5,119.5 216.5,121.5C 214.446,121.365 212.779,122.032 211.5,123.5C 211.415,120.253 212.415,117.419 214.5,115C 219.94,114.962 224.607,113.795 228.5,111.5 Z"/></g>
<g><path style="opacity:1" fill="#8650d1" d="M 255.5,116.5 C 258.187,116.336 260.854,116.503 263.5,117C 267.287,119.123 270.787,121.623 274,124.5C 274.483,125.448 274.649,126.448 274.5,127.5C 274.483,129.565 274.15,131.565 273.5,133.5C 271.355,136.433 269.188,139.433 267,142.5C 266.805,141.181 266.972,139.847 267.5,138.5C 268.6,137.395 269.267,136.062 269.5,134.5C 272.139,131.701 272.972,128.368 272,124.5C 271.781,125.938 271.281,127.271 270.5,128.5C 268.124,123.793 264.458,120.459 259.5,118.5C 255.682,120.609 251.682,121.776 247.5,122C 248.252,121.329 248.586,120.496 248.5,119.5C 250.461,117.688 252.794,116.688 255.5,116.5 Z"/></g>
<g><path style="opacity:1" fill="#7543c2" d="M 237.5,129.5 C 236.088,131.998 234.921,134.664 234,137.5C 230.276,139.042 228.443,137.709 228.5,133.5C 229.376,131.177 229.876,128.843 230,126.5C 229.31,128.35 228.144,129.684 226.5,130.5C 225.542,130.953 224.708,131.619 224,132.5C 223.421,136.203 223.588,139.869 224.5,143.5C 220.915,142.734 218.915,140.401 218.5,136.5C 220.247,135.019 221.414,133.019 222,130.5C 223.319,128.513 225.152,127.346 227.5,127C 229.464,125.549 230.797,123.716 231.5,121.5C 233.932,120.25 236.266,118.75 238.5,117C 241.882,116.176 245.216,116.343 248.5,117.5C 243.422,120.243 239.755,124.243 237.5,129.5 Z"/></g>
<g><path style="opacity:1" fill="#a165e9" d="M 240.5,109.5 C 239.611,111.736 238.278,113.736 236.5,115.5C 231.192,117.379 225.858,119.046 220.5,120.5C 220.545,123.077 219.545,125.077 217.5,126.5C 213.449,130.372 210.949,135.039 210,140.5C 206.983,143.586 205.983,147.252 207,151.5C 207.377,152.942 208.21,153.942 209.5,154.5C 210.5,155.167 211.5,155.833 212.5,156.5C 215.619,160.957 219.619,164.291 224.5,166.5C 225.945,168.063 227.611,169.396 229.5,170.5C 230.96,172.463 232.627,174.296 234.5,176C 232.071,176.703 229.738,176.537 227.5,175.5C 221.919,174.378 217.252,171.711 213.5,167.5C 211.257,166.526 208.924,166.192 206.5,166.5C 203.685,162.672 200.352,159.672 196.5,157.5C 196.323,153.766 196.656,150.099 197.5,146.5C 197.5,145.5 197.5,144.5 197.5,143.5C 198.872,142.112 199.872,140.445 200.5,138.5C 199.246,136.666 198.579,134.666 198.5,132.5C 204.317,131.475 208.65,128.475 211.5,123.5C 212.779,122.032 214.446,121.365 216.5,121.5C 216.5,119.5 216.5,117.5 216.5,115.5C 219.728,115.701 222.895,115.367 226,114.5C 227.31,113.87 228.144,112.87 228.5,111.5C 229.058,110.21 230.058,109.377 231.5,109C 234.555,108.366 237.555,108.532 240.5,109.5 Z"/></g>
<g><path style="opacity:1" fill="#54288e" d="M 240.5,109.5 C 241.5,109.5 242.5,109.5 243.5,109.5C 242.058,110.82 241.392,112.486 241.5,114.5C 243.95,114.702 246.283,114.369 248.5,113.5C 252.846,113.334 257.179,113.501 261.5,114C 261.833,114.333 262.167,114.667 262.5,115C 259.964,115.186 257.631,115.686 255.5,116.5C 252.794,116.688 250.461,117.688 248.5,119.5C 244.949,121.045 242.949,123.712 242.5,127.5C 240.97,128.211 239.637,129.211 238.5,130.5C 238.5,129.833 238.167,129.5 237.5,129.5C 239.755,124.243 243.422,120.243 248.5,117.5C 245.216,116.343 241.882,116.176 238.5,117C 236.266,118.75 233.932,120.25 231.5,121.5C 221.864,121.807 217.531,126.807 218.5,136.5C 218.915,140.401 220.915,142.734 224.5,143.5C 223.588,139.869 223.421,136.203 224,132.5C 224.708,131.619 225.542,130.953 226.5,130.5C 226.768,133.119 226.435,135.619 225.5,138C 226.737,138.232 227.737,138.732 228.5,139.5C 227.624,139.369 226.957,139.702 226.5,140.5C 227.193,141.518 227.859,142.518 228.5,143.5C 226.952,143.821 226.285,144.821 226.5,146.5C 225.178,146.67 224.011,146.337 223,145.5C 222.833,146 222.667,146.5 222.5,147C 224.249,150.882 225.916,154.716 227.5,158.5C 227.5,159.167 227.833,159.5 228.5,159.5C 227.5,160.833 226.5,162.167 225.5,163.5C 223.901,163.768 222.568,163.434 221.5,162.5C 222.5,162.5 223.5,162.5 224.5,162.5C 224.038,156.305 222.872,150.305 221,144.5C 220.148,143.429 219.315,142.429 218.5,141.5C 217.817,139.824 216.483,139.157 214.5,139.5C 214.5,142.5 214.5,145.5 214.5,148.5C 213.833,146.833 213.167,145.167 212.5,143.5C 215.011,138.127 216.678,132.46 217.5,126.5C 219.545,125.077 220.545,123.077 220.5,120.5C 225.858,119.046 231.192,117.379 236.5,115.5C 238.278,113.736 239.611,111.736 240.5,109.5 Z"/></g>
<g><path style="opacity:1" fill="#955fe2" d="M 231.5,121.5 C 230.797,123.716 229.464,125.549 227.5,127C 225.152,127.346 223.319,128.513 222,130.5C 221.414,133.019 220.247,135.019 218.5,136.5C 217.531,126.807 221.864,121.807 231.5,121.5 Z"/></g>
<g><path style="opacity:1" fill="#8853d7" d="M 242.5,127.5 C 245.85,127.335 249.183,127.502 252.5,128C 248.529,128.085 244.862,129.085 241.5,131C 240.748,131.671 240.414,132.504 240.5,133.5C 240.719,134.675 240.386,135.675 239.5,136.5C 238.534,134.604 238.201,132.604 238.5,130.5C 239.637,129.211 240.97,128.211 242.5,127.5 Z"/></g>
<g><path style="opacity:1" fill="#441f73" d="M 292.5,120.5 C 293.233,122.294 294.233,123.961 295.5,125.5C 294.673,129.363 293.839,133.363 293,137.5C 292.148,138.571 291.315,139.571 290.5,140.5C 290.158,139.662 289.492,139.328 288.5,139.5C 289.74,138.027 290.74,136.36 291.5,134.5C 291,134.167 290.5,133.833 290,133.5C 285.544,135.308 281.71,137.975 278.5,141.5C 277.187,138.479 275.521,135.813 273.5,133.5C 274.15,131.565 274.483,129.565 274.5,127.5C 275.75,127.577 276.583,128.244 277,129.5C 277.498,132.482 277.665,135.482 277.5,138.5C 278.822,138.67 279.989,138.337 281,137.5C 282.743,134.043 283.743,130.377 284,126.5C 285.459,128.432 286.625,130.432 287.5,132.5C 289.167,132.5 290.833,132.5 292.5,132.5C 292.5,128.5 292.5,124.5 292.5,120.5 Z"/></g>
<g><path style="opacity:1" fill="#9f63e9" d="M 302.5,127.5 C 306.824,130.508 311.324,133.175 316,135.5C 317,138.833 318,142.167 319,145.5C 320.298,146.56 321.465,147.726 322.5,149C 321.144,150.567 320.477,152.4 320.5,154.5C 319.323,156.679 318.323,159.013 317.5,161.5C 311.104,166.893 305.437,172.893 300.5,179.5C 297.859,180.263 295.192,180.43 292.5,180C 296.478,175.35 299.645,170.183 302,164.5C 303.652,163.601 305.152,162.601 306.5,161.5C 308.09,158.545 307.757,155.878 305.5,153.5C 305.297,151.61 305.963,150.11 307.5,149C 306.347,147.117 304.681,146.284 302.5,146.5C 302.722,140.891 302.056,135.391 300.5,130C 300.684,128.624 301.351,127.791 302.5,127.5 Z"/></g>
<g><path style="opacity:1" fill="#2a1146" d="M 198.5,132.5 C 198.579,134.666 199.246,136.666 200.5,138.5C 199.872,140.445 198.872,142.112 197.5,143.5C 196.203,139.634 196.537,135.967 198.5,132.5 Z"/></g>
<g><path style="opacity:1" fill="#210c38" d="M 273.5,133.5 C 275.521,135.813 277.187,138.479 278.5,141.5C 274.817,145.18 270.817,148.514 266.5,151.5C 265.5,151.5 264.5,151.5 263.5,151.5C 265.229,150.764 266.229,149.43 266.5,147.5C 269.906,143.354 272.24,138.687 273.5,133.5 Z"/></g>
<g><path style="opacity:1" fill="#9f60e7" d="M 288.5,139.5 C 286.727,142.06 284.727,144.393 282.5,146.5C 277.284,151.277 271.284,154.777 264.5,157C 263.167,157.667 261.833,157.667 260.5,157C 262.763,155.383 264.763,153.55 266.5,151.5C 270.817,148.514 274.817,145.18 278.5,141.5C 281.71,137.975 285.544,135.308 290,133.5C 290.5,133.833 291,134.167 291.5,134.5C 290.74,136.36 289.74,138.027 288.5,139.5 Z"/></g>
<g><path style="opacity:1" fill="#471f7b" d="M 237.5,129.5 C 238.167,129.5 238.5,129.833 238.5,130.5C 238.201,132.604 238.534,134.604 239.5,136.5C 240.386,135.675 240.719,134.675 240.5,133.5C 241.496,133.414 242.329,133.748 243,134.5C 246.222,129.793 250.555,128.46 256,130.5C 256.667,131.5 256.667,132.5 256,133.5C 253.323,137.533 249.656,139.866 245,140.5C 244.51,141.793 244.343,143.127 244.5,144.5C 246.591,144.682 248.591,144.348 250.5,143.5C 250.906,144.557 250.906,145.891 250.5,147.5C 249.5,147.5 248.5,147.5 247.5,147.5C 243.491,145.579 239.157,144.412 234.5,144C 231.894,143.208 229.894,141.708 228.5,139.5C 227.737,138.732 226.737,138.232 225.5,138C 226.435,135.619 226.768,133.119 226.5,130.5C 228.144,129.684 229.31,128.35 230,126.5C 229.876,128.843 229.376,131.177 228.5,133.5C 228.443,137.709 230.276,139.042 234,137.5C 234.921,134.664 236.088,131.998 237.5,129.5 Z"/></g>
<g><path style="opacity:1" fill="#230d3f" d="M 288.5,139.5 C 289.492,139.328 290.158,139.662 290.5,140.5C 289.6,145.332 288.934,150.332 288.5,155.5C 288.5,155.833 288.5,156.167 288.5,156.5C 287.849,157.091 287.182,157.757 286.5,158.5C 285.36,154.414 284.027,150.414 282.5,146.5C 284.727,144.393 286.727,142.06 288.5,139.5 Z"/></g>
<g><path style="opacity:1" fill="#995de7" d="M 300.5,148.5 C 299.173,151.471 297.84,154.471 296.5,157.5C 295.518,158.141 294.518,158.807 293.5,159.5C 293.167,159.167 292.833,158.833 292.5,158.5C 295.15,151.766 296.15,144.766 295.5,137.5C 296.067,135.97 296.733,134.47 297.5,133C 298.744,132.544 299.577,133.044 300,134.5C 300.499,139.155 300.666,143.821 300.5,148.5 Z"/></g>
<g><path style="opacity:1" fill="#6230a6" d="M 269.5,134.5 C 265.692,125.013 263.192,125.346 262,135.5C 261.581,134.328 260.915,133.328 260,132.5C 259.666,134.847 259.833,137.181 260.5,139.5C 258.143,139.337 255.81,139.503 253.5,140C 254.609,140.638 255.775,141.138 257,141.5C 260.4,140.044 263.9,139.044 267.5,138.5C 266.972,139.847 266.805,141.181 267,142.5C 269.188,139.433 271.355,136.433 273.5,133.5C 272.24,138.687 269.906,143.354 266.5,147.5C 265.542,147.953 264.708,148.619 264,149.5C 264.053,147.064 263.887,144.731 263.5,142.5C 262.29,145.088 260.956,147.588 259.5,150C 255.821,150.026 252.488,150.86 249.5,152.5C 246.57,153.299 243.57,153.632 240.5,153.5C 238.89,151.41 237.557,149.077 236.5,146.5C 240.198,146.552 243.865,146.886 247.5,147.5C 248.5,147.5 249.5,147.5 250.5,147.5C 250.906,145.891 250.906,144.557 250.5,143.5C 248.591,144.348 246.591,144.682 244.5,144.5C 244.343,143.127 244.51,141.793 245,140.5C 249.656,139.866 253.323,137.533 256,133.5C 256.667,132.5 256.667,131.5 256,130.5C 250.555,128.46 246.222,129.793 243,134.5C 242.329,133.748 241.496,133.414 240.5,133.5C 240.414,132.504 240.748,131.671 241.5,131C 244.862,129.085 248.529,128.085 252.5,128C 249.183,127.502 245.85,127.335 242.5,127.5C 242.949,123.712 244.949,121.045 248.5,119.5C 248.586,120.496 248.252,121.329 247.5,122C 251.682,121.776 255.682,120.609 259.5,118.5C 264.458,120.459 268.124,123.793 270.5,128.5C 271.281,127.271 271.781,125.938 272,124.5C 272.972,128.368 272.139,131.701 269.5,134.5 Z"/></g>
<g><path style="opacity:1" fill="#3c1a6b" d="M 269.5,134.5 C 269.267,136.062 268.6,137.395 267.5,138.5C 263.9,139.044 260.4,140.044 257,141.5C 255.775,141.138 254.609,140.638 253.5,140C 255.81,139.503 258.143,139.337 260.5,139.5C 259.833,137.181 259.666,134.847 260,132.5C 260.915,133.328 261.581,134.328 262,135.5C 263.192,125.346 265.692,125.013 269.5,134.5 Z"/></g>
<g><path style="opacity:1" fill="#391867" d="M 266.5,147.5 C 266.229,149.43 265.229,150.764 263.5,151.5C 258.786,151.353 254.119,151.686 249.5,152.5C 252.488,150.86 255.821,150.026 259.5,150C 260.956,147.588 262.29,145.088 263.5,142.5C 263.887,144.731 264.053,147.064 264,149.5C 264.708,148.619 265.542,147.953 266.5,147.5 Z"/></g>
<g><path style="opacity:1" fill="#572a92" d="M 295.5,125.5 C 295.811,126.478 296.478,127.145 297.5,127.5C 299.316,126.265 300.983,126.265 302.5,127.5C 301.351,127.791 300.684,128.624 300.5,130C 302.056,135.391 302.722,140.891 302.5,146.5C 304.681,146.284 306.347,147.117 307.5,149C 305.963,150.11 305.297,151.61 305.5,153.5C 304.325,153.719 303.325,153.386 302.5,152.5C 303.428,151.232 303.595,149.899 303,148.5C 302.23,147.402 301.397,147.402 300.5,148.5C 300.666,143.821 300.499,139.155 300,134.5C 299.577,133.044 298.744,132.544 297.5,133C 296.733,134.47 296.067,135.97 295.5,137.5C 294.685,138.429 293.852,139.429 293,140.5C 291.705,145.708 290.205,150.708 288.5,155.5C 288.934,150.332 289.6,145.332 290.5,140.5C 291.315,139.571 292.148,138.571 293,137.5C 293.839,133.363 294.673,129.363 295.5,125.5 Z"/></g>
<g><path style="opacity:1" fill="#7a43c6" d="M 217.5,126.5 C 216.678,132.46 215.011,138.127 212.5,143.5C 211.442,145.749 210.109,147.915 208.5,150C 209.148,151.44 209.481,152.94 209.5,154.5C 208.21,153.942 207.377,152.942 207,151.5C 205.983,147.252 206.983,143.586 210,140.5C 210.949,135.039 213.449,130.372 217.5,126.5 Z"/></g>
<g><path style="opacity:1" fill="#552794" d="M 212.5,143.5 C 212.5,147.833 212.5,152.167 212.5,156.5C 211.5,155.833 210.5,155.167 209.5,154.5C 209.481,152.94 209.148,151.44 208.5,150C 210.109,147.915 211.442,145.749 212.5,143.5 Z"/></g>
<g><path style="opacity:1" fill="#9459e3" d="M 218.5,141.5 C 218.47,146.757 219.136,151.924 220.5,157C 220.43,157.765 220.097,158.265 219.5,158.5C 217.088,155.632 215.421,152.299 214.5,148.5C 214.5,145.5 214.5,142.5 214.5,139.5C 216.483,139.157 217.817,139.824 218.5,141.5 Z"/></g>
<g><path style="opacity:1" fill="#945ed2" d="M 228.5,139.5 C 229.894,141.708 231.894,143.208 234.5,144C 239.157,144.412 243.491,145.579 247.5,147.5C 243.865,146.886 240.198,146.552 236.5,146.5C 233.496,146.278 230.829,145.278 228.5,143.5C 227.859,142.518 227.193,141.518 226.5,140.5C 226.957,139.702 227.624,139.369 228.5,139.5 Z"/></g>
<g><path style="opacity:1" fill="#7744c5" d="M 295.5,137.5 C 296.15,144.766 295.15,151.766 292.5,158.5C 292.833,158.833 293.167,159.167 293.5,159.5C 294.518,158.807 295.518,158.141 296.5,157.5C 296.5,157.833 296.5,158.167 296.5,158.5C 295.341,160.25 293.674,161.25 291.5,161.5C 290.5,161.5 289.5,161.5 288.5,161.5C 288.5,159.833 288.5,158.167 288.5,156.5C 288.5,156.167 288.5,155.833 288.5,155.5C 290.205,150.708 291.705,145.708 293,140.5C 293.852,139.429 294.685,138.429 295.5,137.5 Z"/></g>
<g><path style="opacity:1" fill="#37165a" d="M 305.5,153.5 C 307.757,155.878 308.09,158.545 306.5,161.5C 305.833,161.5 305.167,161.5 304.5,161.5C 304.539,160.417 304.873,159.417 305.5,158.5C 302.502,157.357 299.502,157.357 296.5,158.5C 296.5,158.167 296.5,157.833 296.5,157.5C 297.84,154.471 299.173,151.471 300.5,148.5C 301.397,147.402 302.23,147.402 303,148.5C 303.595,149.899 303.428,151.232 302.5,152.5C 303.325,153.386 304.325,153.719 305.5,153.5 Z"/></g>
<g><path style="opacity:1" fill="#2e1251" d="M 228.5,143.5 C 230.829,145.278 233.496,146.278 236.5,146.5C 237.557,149.077 238.89,151.41 240.5,153.5C 235.653,154.116 231.32,155.782 227.5,158.5C 225.916,154.716 224.249,150.882 222.5,147C 222.667,146.5 222.833,146 223,145.5C 224.011,146.337 225.178,146.67 226.5,146.5C 226.285,144.821 226.952,143.821 228.5,143.5 Z"/></g>
<g><path style="opacity:1" fill="#6130a9" d="M 279.5,166.5 C 278.486,167.674 277.153,168.34 275.5,168.5C 275.196,167.85 274.863,167.183 274.5,166.5C 276.662,161.504 279.329,156.838 282.5,152.5C 283.192,153.025 283.692,153.692 284,154.5C 284.498,157.817 284.665,161.15 284.5,164.5C 282.447,164.402 280.78,165.069 279.5,166.5 Z"/></g>
<g><path style="opacity:1" fill="#a160e3" d="M 263.5,151.5 C 253.749,155.088 243.749,157.421 233.5,158.5C 231.784,158.629 230.117,158.962 228.5,159.5C 227.833,159.5 227.5,159.167 227.5,158.5C 231.32,155.782 235.653,154.116 240.5,153.5C 243.57,153.632 246.57,153.299 249.5,152.5C 254.119,151.686 258.786,151.353 263.5,151.5 Z"/></g>
<g><path style="opacity:1" fill="#341359" d="M 212.5,143.5 C 213.167,145.167 213.833,146.833 214.5,148.5C 215.421,152.299 217.088,155.632 219.5,158.5C 219.733,160.062 220.4,161.395 221.5,162.5C 222.568,163.434 223.901,163.768 225.5,163.5C 225.443,164.609 225.11,165.609 224.5,166.5C 219.619,164.291 215.619,160.957 212.5,156.5C 212.5,152.167 212.5,147.833 212.5,143.5 Z"/></g>
<g><path style="opacity:1" fill="#6d3cbd" d="M 218.5,141.5 C 219.315,142.429 220.148,143.429 221,144.5C 222.872,150.305 224.038,156.305 224.5,162.5C 223.5,162.5 222.5,162.5 221.5,162.5C 220.4,161.395 219.733,160.062 219.5,158.5C 220.097,158.265 220.43,157.765 220.5,157C 219.136,151.924 218.47,146.757 218.5,141.5 Z"/></g>
<g><path style="opacity:1" fill="#481f78" d="M 197.5,146.5 C 196.656,150.099 196.323,153.766 196.5,157.5C 200.352,159.672 203.685,162.672 206.5,166.5C 207.5,168.5 208.5,170.5 209.5,172.5C 208.18,171.058 206.514,170.392 204.5,170.5C 204.66,168.801 204.494,167.134 204,165.5C 201.667,163.833 199.333,162.167 197,160.5C 195.282,158.103 194.115,155.436 193.5,152.5C 191.929,153.309 190.262,153.643 188.5,153.5C 191.74,151.608 194.74,149.274 197.5,146.5 Z"/></g>
<g><path style="opacity:1" fill="#26143a" d="M 320.5,154.5 C 320.821,157.577 319.821,159.91 317.5,161.5C 318.323,159.013 319.323,156.679 320.5,154.5 Z"/></g>
<g><path style="opacity:1" fill="#260e43" d="M 233.5,158.5 C 235.857,158.337 238.19,158.503 240.5,159C 234.501,160.827 230.834,164.66 229.5,170.5C 227.611,169.396 225.945,168.063 224.5,166.5C 225.11,165.609 225.443,164.609 225.5,163.5C 226.5,162.167 227.5,160.833 228.5,159.5C 230.117,158.962 231.784,158.629 233.5,158.5 Z"/></g>
<g><path style="opacity:1" fill="#552c94" d="M 209.5,172.5 C 211.477,174.814 213.477,177.147 215.5,179.5C 214.311,180.429 212.978,180.762 211.5,180.5C 209.743,175.575 206.41,172.075 201.5,170C 197.806,167.313 195.306,163.813 194,159.5C 193.31,158.262 192.81,158.262 192.5,159.5C 190.674,157.853 189.34,155.853 188.5,153.5C 190.262,153.643 191.929,153.309 193.5,152.5C 194.115,155.436 195.282,158.103 197,160.5C 199.333,162.167 201.667,163.833 204,165.5C 204.494,167.134 204.66,168.801 204.5,170.5C 206.514,170.392 208.18,171.058 209.5,172.5 Z"/></g>
<g><path style="opacity:1" fill="#6731ae" d="M 269.5,170.5 C 264.869,173.151 260.202,175.818 255.5,178.5C 254.054,177.387 252.387,177.22 250.5,178C 248.833,179 247.167,180 245.5,181C 246.094,181.464 246.761,181.631 247.5,181.5C 246.432,182.434 245.099,182.768 243.5,182.5C 243.356,174.475 247.022,168.975 254.5,166C 260.044,163.58 265.211,164.08 270,167.5C 270.47,168.577 270.303,169.577 269.5,170.5 Z"/></g>
<g><path style="opacity:1" fill="#7e51c9" d="M 211.5,180.5 C 210.167,180.5 208.833,180.5 207.5,180.5C 197.55,177.194 192.55,170.194 192.5,159.5C 192.81,158.262 193.31,158.262 194,159.5C 195.306,163.813 197.806,167.313 201.5,170C 206.41,172.075 209.743,175.575 211.5,180.5 Z"/></g>
<g><path style="opacity:1" fill="#a868ef" d="M 304.5,161.5 C 301.785,163.123 298.785,163.79 295.5,163.5C 295.5,165.167 295.5,166.833 295.5,168.5C 291.092,174.531 285.092,177.031 277.5,176C 276.663,177.011 276.33,178.178 276.5,179.5C 275.5,179.5 274.5,179.5 273.5,179.5C 267.31,179.823 261.31,179.49 255.5,178.5C 260.202,175.818 264.869,173.151 269.5,170.5C 271.703,170.396 273.703,169.73 275.5,168.5C 277.153,168.34 278.486,167.674 279.5,166.5C 284.017,165.903 288.017,164.237 291.5,161.5C 293.674,161.25 295.341,160.25 296.5,158.5C 299.502,157.357 302.502,157.357 305.5,158.5C 304.873,159.417 304.539,160.417 304.5,161.5 Z"/></g>
<g><path style="opacity:1" fill="#220d3d" d="M 206.5,166.5 C 208.924,166.192 211.257,166.526 213.5,167.5C 217.252,171.711 221.919,174.378 227.5,175.5C 227.933,178.195 229.266,180.362 231.5,182C 228.986,183.252 226.32,183.752 223.5,183.5C 223.167,183.5 222.833,183.5 222.5,183.5C 219.604,182.225 216.604,182.225 213.5,183.5C 211.844,181.94 209.844,180.94 207.5,180.5C 208.833,180.5 210.167,180.5 211.5,180.5C 212.978,180.762 214.311,180.429 215.5,179.5C 213.477,177.147 211.477,174.814 209.5,172.5C 208.5,170.5 207.5,168.5 206.5,166.5 Z"/></g>
<g><path style="opacity:1" fill="#572992" d="M 304.5,161.5 C 305.167,161.5 305.833,161.5 306.5,161.5C 305.152,162.601 303.652,163.601 302,164.5C 299.645,170.183 296.478,175.35 292.5,180C 295.192,180.43 297.859,180.263 300.5,179.5C 298.664,181.588 296.331,182.921 293.5,183.5C 292.5,183.5 291.5,183.5 290.5,183.5C 290.343,182.127 290.51,180.793 291,179.5C 294.119,174.576 296.953,169.576 299.5,164.5C 298.5,164.5 297.5,164.5 296.5,164.5C 296.768,166.099 296.434,167.432 295.5,168.5C 295.5,166.833 295.5,165.167 295.5,163.5C 298.785,163.79 301.785,163.123 304.5,161.5 Z"/></g>
<g><path style="opacity:1" fill="#290f49" d="M 293.5,183.5 C 292.081,184.451 290.415,184.784 288.5,184.5C 289.434,182.761 289.434,181.095 288.5,179.5C 284.841,182.327 281.674,185.66 279,189.5C 279.222,187.544 280.055,185.71 281.5,184C 278.716,183.583 276.716,184.75 275.5,187.5C 273.379,185.102 271.045,184.935 268.5,187C 265.58,188.946 262.913,191.113 260.5,193.5C 260.167,193.5 259.833,193.5 259.5,193.5C 259.631,192.624 259.298,191.957 258.5,191.5C 253.703,192.802 249.036,192.802 244.5,191.5C 250.556,192.484 255.889,191.151 260.5,187.5C 262.956,186.312 265.289,184.979 267.5,183.5C 263.987,182.068 260.32,181.235 256.5,181C 262.348,180.827 268.015,180.327 273.5,179.5C 274.5,179.5 275.5,179.5 276.5,179.5C 276.33,178.178 276.663,177.011 277.5,176C 285.092,177.031 291.092,174.531 295.5,168.5C 296.434,167.432 296.768,166.099 296.5,164.5C 297.5,164.5 298.5,164.5 299.5,164.5C 296.953,169.576 294.119,174.576 291,179.5C 290.51,180.793 290.343,182.127 290.5,183.5C 291.5,183.5 292.5,183.5 293.5,183.5 Z"/></g>
<g><path style="opacity:1" fill="#421c74" d="M 282.5,146.5 C 284.027,150.414 285.36,154.414 286.5,158.5C 287.182,157.757 287.849,157.091 288.5,156.5C 288.5,158.167 288.5,159.833 288.5,161.5C 289.5,161.5 290.5,161.5 291.5,161.5C 288.017,164.237 284.017,165.903 279.5,166.5C 280.78,165.069 282.447,164.402 284.5,164.5C 284.665,161.15 284.498,157.817 284,154.5C 283.692,153.692 283.192,153.025 282.5,152.5C 279.329,156.838 276.662,161.504 274.5,166.5C 274.863,167.183 275.196,167.85 275.5,168.5C 273.703,169.73 271.703,170.396 269.5,170.5C 270.303,169.577 270.47,168.577 270,167.5C 265.211,164.08 260.044,163.58 254.5,166C 247.022,168.975 243.356,174.475 243.5,182.5C 238.005,183.129 232.505,183.796 227,184.5C 225.615,184.486 224.449,184.152 223.5,183.5C 226.32,183.752 228.986,183.252 231.5,182C 229.266,180.362 227.933,178.195 227.5,175.5C 229.738,176.537 232.071,176.703 234.5,176C 232.627,174.296 230.96,172.463 229.5,170.5C 230.834,164.66 234.501,160.827 240.5,159C 238.19,158.503 235.857,158.337 233.5,158.5C 243.749,157.421 253.749,155.088 263.5,151.5C 264.5,151.5 265.5,151.5 266.5,151.5C 264.763,153.55 262.763,155.383 260.5,157C 261.833,157.667 263.167,157.667 264.5,157C 271.284,154.777 277.284,151.277 282.5,146.5 Z"/></g>
<g><path style="opacity:1" fill="#6934b3" d="M 240.5,163.5 C 249.92,162.114 251.42,164.447 245,170.5C 243.648,173.72 242.814,177.053 242.5,180.5C 240.097,180.607 238.264,179.607 237,177.5C 235.041,175.223 233.541,172.723 232.5,170C 232.585,168.893 232.919,167.893 233.5,167C 235.713,165.384 238.047,164.217 240.5,163.5 Z"/></g>
<g><path style="opacity:1" fill="#4c2281" d="M 255.5,178.5 C 261.31,179.49 267.31,179.823 273.5,179.5C 268.015,180.327 262.348,180.827 256.5,181C 260.32,181.235 263.987,182.068 267.5,183.5C 265.289,184.979 262.956,186.312 260.5,187.5C 259.432,185.26 257.766,183.426 255.5,182C 252.854,181.503 250.187,181.336 247.5,181.5C 246.761,181.631 246.094,181.464 245.5,181C 247.167,180 248.833,179 250.5,178C 252.387,177.22 254.054,177.387 255.5,178.5 Z"/></g>
<g><path style="opacity:1" fill="#a364ed" d="M 247.5,181.5 C 250.187,181.336 252.854,181.503 255.5,182C 257.766,183.426 259.432,185.26 260.5,187.5C 255.889,191.151 250.556,192.484 244.5,191.5C 243.833,191.167 243.167,190.833 242.5,190.5C 240.965,189.212 239.299,189.212 237.5,190.5C 236.873,191.417 236.539,192.417 236.5,193.5C 233.697,194.928 230.697,195.595 227.5,195.5C 226.655,191.554 224.988,190.888 222.5,193.5C 219.979,196.018 217.479,196.018 215,193.5C 213.818,191.656 212.651,189.823 211.5,188C 212.154,186.013 213.487,184.68 215.5,184C 217.81,183.503 220.143,183.337 222.5,183.5C 222.833,183.5 223.167,183.5 223.5,183.5C 224.449,184.152 225.615,184.486 227,184.5C 232.505,183.796 238.005,183.129 243.5,182.5C 245.099,182.768 246.432,182.434 247.5,181.5 Z"/></g>
<g><path style="opacity:1" fill="#4c217e" d="M 242.5,190.5 C 239.923,190.455 237.923,191.455 236.5,193.5C 236.539,192.417 236.873,191.417 237.5,190.5C 239.299,189.212 240.965,189.212 242.5,190.5 Z"/></g>
<g><path style="opacity:1" fill="#431f75" d="M 222.5,183.5 C 220.143,183.337 217.81,183.503 215.5,184C 213.487,184.68 212.154,186.013 211.5,188C 212.651,189.823 213.818,191.656 215,193.5C 217.479,196.018 219.979,196.018 222.5,193.5C 222.675,195.621 222.341,197.621 221.5,199.5C 219.198,200.86 217.532,200.193 216.5,197.5C 213.553,196.679 210.553,196.179 207.5,196C 203.896,194.666 202.729,192.166 204,188.5C 207.308,187.054 210.474,185.387 213.5,183.5C 216.604,182.225 219.604,182.225 222.5,183.5 Z"/></g>
<g><path style="opacity:1" fill="#55298c" d="M 227.5,195.5 C 225.678,195.169 224.011,194.502 222.5,193.5C 224.988,190.888 226.655,191.554 227.5,195.5 Z"/></g>
<g><path style="opacity:1" fill="#1a092f" d="M 242.5,190.5 C 243.167,190.833 243.833,191.167 244.5,191.5C 249.036,192.802 253.703,192.802 258.5,191.5C 259.298,191.957 259.631,192.624 259.5,193.5C 254.354,197.054 248.688,199.554 242.5,201C 241.748,201.671 241.414,202.504 241.5,203.5C 239.588,203.488 237.588,203.821 235.5,204.5C 235.5,203.833 235.167,203.5 234.5,203.5C 232.304,199.001 228.638,197.001 223.5,197.5C 223.5,198.833 223.5,200.167 223.5,201.5C 222.833,200.833 222.167,200.167 221.5,199.5C 222.341,197.621 222.675,195.621 222.5,193.5C 224.011,194.502 225.678,195.169 227.5,195.5C 230.697,195.595 233.697,194.928 236.5,193.5C 237.923,191.455 239.923,190.455 242.5,190.5 Z"/></g>
<g><path style="opacity:1" fill="#532693" d="M 288.5,184.5 C 285.97,190.931 281.637,195.597 275.5,198.5C 270.586,200.482 265.586,202.315 260.5,204C 256.848,204.499 253.182,204.665 249.5,204.5C 251.124,200.378 254.124,197.878 258.5,197C 259.823,196.184 260.489,195.017 260.5,193.5C 262.913,191.113 265.58,188.946 268.5,187C 271.045,184.935 273.379,185.102 275.5,187.5C 276.716,184.75 278.716,183.583 281.5,184C 280.055,185.71 279.222,187.544 279,189.5C 281.674,185.66 284.841,182.327 288.5,179.5C 289.434,181.095 289.434,182.761 288.5,184.5 Z"/></g>
<g><path style="opacity:1" fill="#3a176c" d="M 259.5,193.5 C 259.833,193.5 260.167,193.5 260.5,193.5C 260.489,195.017 259.823,196.184 258.5,197C 254.124,197.878 251.124,200.378 249.5,204.5C 246.615,204.806 243.948,204.473 241.5,203.5C 241.414,202.504 241.748,201.671 242.5,201C 248.688,199.554 254.354,197.054 259.5,193.5 Z"/></g>
<g><path style="opacity:1" fill="#331650" d="M 234.5,203.5 C 230.792,201.976 227.125,201.31 223.5,201.5C 223.5,200.167 223.5,198.833 223.5,197.5C 228.638,197.001 232.304,199.001 234.5,203.5 Z"/></g>
<g><path style="opacity:1" fill="#6a5072" d="M 271.5,203.5 C 272.023,205.708 273.356,207.208 275.5,208C 278.696,208.805 281.696,208.638 284.5,207.5C 286.857,207.337 289.19,207.503 291.5,208C 285.316,210.168 278.983,210.835 272.5,210C 270.676,209.34 269.343,208.173 268.5,206.5C 268.81,204.856 269.81,203.856 271.5,203.5 Z"/></g>
<g><path style="opacity:1" fill="#8f7d9a" d="M 277.5,202.5 C 279.695,204.424 282.028,206.091 284.5,207.5C 281.696,208.638 278.696,208.805 275.5,208C 273.356,207.208 272.023,205.708 271.5,203.5C 273.5,203.167 275.5,202.833 277.5,202.5 Z"/></g>
<g><path style="opacity:1" fill="#301e3d" d="M 275.5,198.5 C 275.733,200.062 276.4,201.395 277.5,202.5C 275.5,202.833 273.5,203.167 271.5,203.5C 269.81,203.856 268.81,204.856 268.5,206.5C 267.504,206.586 266.671,206.252 266,205.5C 265.506,207.134 265.34,208.801 265.5,210.5C 263.393,209.7 261.226,209.033 259,208.5C 257.624,208.684 256.791,209.351 256.5,210.5C 255.064,210.755 253.564,211.088 252,211.5C 251.503,214.146 251.336,216.813 251.5,219.5C 251.5,220.5 251.5,221.5 251.5,222.5C 250.833,219.5 250.167,216.5 249.5,213.5C 251.136,211.617 251.469,209.617 250.5,207.5C 248.252,208.378 246.085,208.045 244,206.5C 242.198,207.789 241.031,209.456 240.5,211.5C 239.391,211.557 238.391,211.89 237.5,212.5C 236.167,212.5 234.833,212.5 233.5,212.5C 234.8,211.173 236.133,209.84 237.5,208.5C 236.675,207.614 235.675,207.281 234.5,207.5C 234.557,206.391 234.89,205.391 235.5,204.5C 237.588,203.821 239.588,203.488 241.5,203.5C 243.948,204.473 246.615,204.806 249.5,204.5C 253.182,204.665 256.848,204.499 260.5,204C 265.586,202.315 270.586,200.482 275.5,198.5 Z"/></g>
<g><path style="opacity:1" fill="#5f486b" d="M 265.5,210.5 C 266.15,212.435 266.483,214.435 266.5,216.5C 264.468,215.952 263.468,214.619 263.5,212.5C 261.278,212.822 259.444,212.155 258,210.5C 257.517,211.448 257.351,212.448 257.5,213.5C 256.596,212.791 256.263,211.791 256.5,210.5C 256.791,209.351 257.624,208.684 259,208.5C 261.226,209.033 263.393,209.7 265.5,210.5 Z"/></g>
<g><path style="opacity:1" fill="#886f8f" d="M 234.5,207.5 C 235.675,207.281 236.675,207.614 237.5,208.5C 236.133,209.84 234.8,211.173 233.5,212.5C 231.25,212.819 229.25,212.319 227.5,211C 230.404,210.867 232.738,209.7 234.5,207.5 Z"/></g>
<g><path style="opacity:1" fill="#928899" d="M 239.5,218.5 C 238.209,218.737 237.209,218.404 236.5,217.5C 237.301,215.958 237.634,214.292 237.5,212.5C 238.391,211.89 239.391,211.557 240.5,211.5C 242.394,210.952 244.06,209.952 245.5,208.5C 246.103,210.452 245.77,212.452 244.5,214.5C 242.79,215.887 241.123,217.221 239.5,218.5 Z"/></g>
<g><path style="opacity:1" fill="#776286" d="M 249.5,213.5 C 247.305,215.424 244.972,217.091 242.5,218.5C 241.5,218.5 240.5,218.5 239.5,218.5C 241.123,217.221 242.79,215.887 244.5,214.5C 245.77,212.452 246.103,210.452 245.5,208.5C 244.06,209.952 242.394,210.952 240.5,211.5C 241.031,209.456 242.198,207.789 244,206.5C 246.085,208.045 248.252,208.378 250.5,207.5C 251.469,209.617 251.136,211.617 249.5,213.5 Z"/></g>
<g><path style="opacity:1" fill="#210b3b" d="M 256.5,210.5 C 256.263,211.791 256.596,212.791 257.5,213.5C 257.833,214.833 258.167,216.167 258.5,217.5C 258.784,219.415 258.451,221.081 257.5,222.5C 257.885,213.791 255.885,212.791 251.5,219.5C 251.336,216.813 251.503,214.146 252,211.5C 253.564,211.088 255.064,210.755 256.5,210.5 Z"/></g>
<g><path style="opacity:1" fill="#030105" d="M 249.5,213.5 C 250.167,216.5 250.833,219.5 251.5,222.5C 253.591,235.785 253.925,249.118 252.5,262.5C 249.479,259.794 247.479,256.461 246.5,252.5C 246.813,248.958 246.479,245.625 245.5,242.5C 245.54,239.575 244.707,236.909 243,234.5C 240.302,230.975 237.469,227.642 234.5,224.5C 233.449,223.778 232.782,222.778 232.5,221.5C 234.913,219.949 237.579,219.283 240.5,219.5C 240.215,221.288 240.548,222.955 241.5,224.5C 242.466,222.604 242.799,220.604 242.5,218.5C 244.972,217.091 247.305,215.424 249.5,213.5 Z"/></g>
<g><path style="opacity:1" fill="#8d7d95" d="M 266.5,216.5 C 266.5,218.5 266.5,220.5 266.5,222.5C 266.5,223.167 266.167,223.5 265.5,223.5C 263.192,221.529 260.858,219.529 258.5,217.5C 258.167,216.167 257.833,214.833 257.5,213.5C 257.351,212.448 257.517,211.448 258,210.5C 259.444,212.155 261.278,212.822 263.5,212.5C 263.468,214.619 264.468,215.952 266.5,216.5 Z"/></g>
<g><path style="opacity:1" fill="#33253d" d="M 236.5,217.5 C 237.209,218.404 238.209,218.737 239.5,218.5C 240.5,218.5 241.5,218.5 242.5,218.5C 242.799,220.604 242.466,222.604 241.5,224.5C 240.548,222.955 240.215,221.288 240.5,219.5C 237.579,219.283 234.913,219.949 232.5,221.5C 231.833,221.5 231.5,221.167 231.5,220.5C 233.332,219.752 234.999,218.752 236.5,217.5 Z"/></g>
<g><path style="opacity:1" fill="#5d3f95" d="M 322.5,226.5 C 317.744,225.672 313.41,227.005 309.5,230.5C 308.791,229.596 307.791,229.263 306.5,229.5C 311.358,227.26 316.358,225.094 321.5,223C 318.635,222.817 315.969,222.317 313.5,221.5C 319.926,221.909 326.093,220.909 332,218.5C 329.934,222.101 326.767,224.768 322.5,226.5 Z"/></g>
<g><path style="opacity:1" fill="#524059" d="M 266.5,222.5 C 267.629,224.628 267.796,226.961 267,229.5C 266.685,227.414 266.185,225.414 265.5,223.5C 266.167,223.5 266.5,223.167 266.5,222.5 Z"/></g>
<g><path style="opacity:1" fill="#7853c5" d="M 313.5,221.5 C 315.969,222.317 318.635,222.817 321.5,223C 316.358,225.094 311.358,227.26 306.5,229.5C 304.016,230.723 301.683,232.223 299.5,234C 297.888,234.72 296.388,234.554 295,233.5C 293.606,235.402 291.773,235.735 289.5,234.5C 288.896,239.024 286.396,242.024 282,243.5C 281.667,242.167 281.333,240.833 281,239.5C 280.802,242.702 279.969,245.702 278.5,248.5C 276.367,250.091 274.701,252.091 273.5,254.5C 272.201,253.91 271.368,252.91 271,251.5C 270.81,256.637 269.476,257.303 267,253.5C 266.502,250.183 266.335,246.85 266.5,243.5C 270.686,232.645 278.353,225.645 289.5,222.5C 290.894,222.621 292.228,222.954 293.5,223.5C 295.547,221.985 297.881,221.151 300.5,221C 305.02,220.186 309.354,220.353 313.5,221.5 Z"/></g>
<g><path style="opacity:1" fill="#492a79" d="M 229.5,219.5 C 230.167,219.833 230.833,220.167 231.5,220.5C 231.5,221.167 231.833,221.5 232.5,221.5C 232.782,222.778 233.449,223.778 234.5,224.5C 233.5,224.5 232.5,224.5 231.5,224.5C 230.584,228.874 230.584,233.208 231.5,237.5C 234.713,238.164 236.879,240.164 238,243.5C 242.978,249.62 245.478,249.287 245.5,242.5C 246.479,245.625 246.813,248.958 246.5,252.5C 245.533,253.806 244.199,254.473 242.5,254.5C 242.5,253.5 242.5,252.5 242.5,251.5C 239.288,250.156 235.955,248.99 232.5,248C 238.903,246.577 238.569,245.743 231.5,245.5C 231.828,239.969 229.161,236.969 223.5,236.5C 225.991,235.459 225.991,234.626 223.5,234C 220.833,233.667 218.167,233.333 215.5,233C 216.938,232.781 218.271,232.281 219.5,231.5C 216.136,226.976 211.803,223.643 206.5,221.5C 208.44,220.472 210.44,220.472 212.5,221.5C 215.66,223.828 218.327,226.661 220.5,230C 223.521,230.849 226.521,231.683 229.5,232.5C 229.5,228.167 229.5,223.833 229.5,219.5 Z"/></g>
<g><path style="opacity:1" fill="#7353bf" d="M 234.5,224.5 C 237.469,227.642 240.302,230.975 243,234.5C 244.707,236.909 245.54,239.575 245.5,242.5C 245.478,249.287 242.978,249.62 238,243.5C 236.879,240.164 234.713,238.164 231.5,237.5C 230.584,233.208 230.584,228.874 231.5,224.5C 232.5,224.5 233.5,224.5 234.5,224.5 Z"/></g>
<g><path style="opacity:1" fill="#49297c" d="M 306.5,229.5 C 307.791,229.263 308.791,229.596 309.5,230.5C 305.968,231.854 302.802,233.854 300,236.5C 298.967,239.217 299.8,241.051 302.5,242C 299.183,242.498 295.85,242.665 292.5,242.5C 285.967,245.03 280.967,249.364 277.5,255.5C 283.335,257.299 289.335,257.966 295.5,257.5C 290.082,259.022 284.415,260.022 278.5,260.5C 277.423,261.705 276.09,262.372 274.5,262.5C 274.611,261.883 274.944,261.383 275.5,261C 274.128,260.598 272.795,260.098 271.5,259.5C 270.264,260.246 268.93,260.579 267.5,260.5C 267.843,262.483 267.176,263.817 265.5,264.5C 265.5,263.833 265.167,263.5 264.5,263.5C 264.207,256.595 264.874,249.928 266.5,243.5C 266.335,246.85 266.502,250.183 267,253.5C 269.476,257.303 270.81,256.637 271,251.5C 271.368,252.91 272.201,253.91 273.5,254.5C 274.701,252.091 276.367,250.091 278.5,248.5C 279.969,245.702 280.802,242.702 281,239.5C 281.333,240.833 281.667,242.167 282,243.5C 286.396,242.024 288.896,239.024 289.5,234.5C 291.773,235.735 293.606,235.402 295,233.5C 296.388,234.554 297.888,234.72 299.5,234C 301.683,232.223 304.016,230.723 306.5,229.5 Z"/></g>
<g><path style="opacity:1" fill="#4a1a80" d="M 257.5,222.5 C 256.701,237.104 256.034,251.771 255.5,266.5C 254.839,267.718 254.172,269.051 253.5,270.5C 252.526,268.257 252.192,265.924 252.5,263.5C 252.5,263.167 252.5,262.833 252.5,262.5C 253.925,249.118 253.591,235.785 251.5,222.5C 251.5,221.5 251.5,220.5 251.5,219.5C 255.885,212.791 257.885,213.791 257.5,222.5 Z"/></g>
<g><path style="opacity:1" fill="#6a45b6" d="M 292.5,242.5 C 292.611,243.117 292.944,243.617 293.5,244C 292.167,244.667 290.833,245.333 289.5,246C 290.009,248.57 291.009,250.903 292.5,253C 291.663,254.011 291.33,255.178 291.5,256.5C 294.865,256.745 298.032,256.078 301,254.5C 301.5,254.667 302,254.833 302.5,255C 300.35,256.411 298.016,257.245 295.5,257.5C 289.335,257.966 283.335,257.299 277.5,255.5C 280.967,249.364 285.967,245.03 292.5,242.5 Z"/></g>
<g><path style="opacity:1" fill="#7a57c7" d="M 229.5,219.5 C 229.5,223.833 229.5,228.167 229.5,232.5C 226.521,231.683 223.521,230.849 220.5,230C 218.327,226.661 215.66,223.828 212.5,221.5C 210.44,220.472 208.44,220.472 206.5,221.5C 211.803,223.643 216.136,226.976 219.5,231.5C 218.271,232.281 216.938,232.781 215.5,233C 218.167,233.333 220.833,233.667 223.5,234C 225.991,234.626 225.991,235.459 223.5,236.5C 229.161,236.969 231.828,239.969 231.5,245.5C 238.569,245.743 238.903,246.577 232.5,248C 235.955,248.99 239.288,250.156 242.5,251.5C 242.5,252.5 242.5,253.5 242.5,254.5C 241.833,254.5 241.5,254.833 241.5,255.5C 235.645,257.667 229.645,258.001 223.5,256.5C 215.704,251.699 210.037,245.033 206.5,236.5C 205.25,222.725 198.25,212.892 185.5,207C 190.918,205.733 195.252,207.399 198.5,212C 209.511,212.052 219.844,214.552 229.5,219.5 Z"/></g>
<g><path style="opacity:1" fill="#472878" d="M 206.5,236.5 C 210.037,245.033 215.704,251.699 223.5,256.5C 218.971,256.504 215.471,254.504 213,250.5C 209.481,246.463 207.315,241.796 206.5,236.5 Z"/></g>
<g><path style="opacity:1" fill="#7e5dcc" d="M 322.5,226.5 C 320.496,227.673 318.996,229.34 318,231.5C 316.63,241.615 313.297,250.948 308,259.5C 305.228,262.783 302.061,265.45 298.5,267.5C 291.454,270.174 284.121,271.174 276.5,270.5C 274.035,270.233 271.701,269.566 269.5,268.5C 269.5,268.167 269.5,267.833 269.5,267.5C 269.537,264.298 271.203,262.632 274.5,262.5C 276.09,262.372 277.423,261.705 278.5,260.5C 284.415,260.022 290.082,259.022 295.5,257.5C 298.016,257.245 300.35,256.411 302.5,255C 302,254.833 301.5,254.667 301,254.5C 298.032,256.078 294.865,256.745 291.5,256.5C 291.33,255.178 291.663,254.011 292.5,253C 291.009,250.903 290.009,248.57 289.5,246C 290.833,245.333 292.167,244.667 293.5,244C 292.944,243.617 292.611,243.117 292.5,242.5C 295.85,242.665 299.183,242.498 302.5,242C 299.8,241.051 298.967,239.217 300,236.5C 302.802,233.854 305.968,231.854 309.5,230.5C 313.41,227.005 317.744,225.672 322.5,226.5 Z"/></g>
<g><path style="opacity:1" fill="#272443" d="M 246.5,252.5 C 247.479,256.461 249.479,259.794 252.5,262.5C 252.5,262.833 252.5,263.167 252.5,263.5C 251.662,263.842 251.328,264.508 251.5,265.5C 250.792,263.622 249.626,261.955 248,260.5C 247,261.833 246,261.833 245,260.5C 245.019,258.893 245.185,257.226 245.5,255.5C 244.167,255.5 242.833,255.5 241.5,255.5C 241.5,254.833 241.833,254.5 242.5,254.5C 244.199,254.473 245.533,253.806 246.5,252.5 Z"/></g>
<g><path style="opacity:1" fill="#351b5a" d="M 274.5,262.5 C 271.203,262.632 269.537,264.298 269.5,267.5C 268.167,267.5 266.833,267.5 265.5,267.5C 265.5,266.5 265.5,265.5 265.5,264.5C 267.176,263.817 267.843,262.483 267.5,260.5C 268.93,260.579 270.264,260.246 271.5,259.5C 272.795,260.098 274.128,260.598 275.5,261C 274.944,261.383 274.611,261.883 274.5,262.5 Z"/></g>
<g><path style="opacity:1" fill="#2b1745" d="M 298.5,267.5 C 297.657,269.173 296.324,270.34 294.5,271C 288.319,271.819 282.319,271.653 276.5,270.5C 284.121,271.174 291.454,270.174 298.5,267.5 Z"/></g>
<g><path style="opacity:1" fill="#29324d" d="M 264.5,263.5 C 265.167,263.5 265.5,263.833 265.5,264.5C 265.5,265.5 265.5,266.5 265.5,267.5C 266.833,267.5 268.167,267.5 269.5,267.5C 269.5,267.833 269.5,268.167 269.5,268.5C 266.728,268.595 264.728,269.929 263.5,272.5C 265.865,273.085 267.865,274.252 269.5,276C 266.712,278.856 263.379,280.19 259.5,280C 260.5,279 261.5,278 262.5,277C 260.203,277.112 258.536,278.278 257.5,280.5C 257.5,279.5 257.5,278.5 257.5,277.5C 259.062,274.358 260.562,271.025 262,267.5C 263.016,266.366 263.683,266.699 264,268.5C 264.494,266.866 264.66,265.199 264.5,263.5 Z"/></g>
<g><path style="opacity:1" fill="#673fa3" d="M 251.5,271.5 C 256.361,274.038 256.361,275.704 251.5,276.5C 250.521,275.235 249.521,273.901 248.5,272.5C 249.325,271.614 250.325,271.281 251.5,271.5 Z"/></g>
<g><path style="opacity:1" fill="#301055" d="M 252.5,263.5 C 252.192,265.924 252.526,268.257 253.5,270.5C 254.172,269.051 254.839,267.718 255.5,266.5C 257.147,269.921 257.813,273.587 257.5,277.5C 257.5,278.5 257.5,279.5 257.5,280.5C 257.016,284.232 256.349,287.899 255.5,291.5C 254.609,292.11 253.609,292.443 252.5,292.5C 252.431,287.146 252.098,281.813 251.5,276.5C 256.361,275.704 256.361,274.038 251.5,271.5C 251.5,269.5 251.5,267.5 251.5,265.5C 251.328,264.508 251.662,263.842 252.5,263.5 Z"/></g>
<g><path style="opacity:1" fill="#512b83" d="M 246.5,290.5 C 245.167,290.5 243.833,290.5 242.5,290.5C 241.685,294.833 243.352,297.166 247.5,297.5C 247.5,295.5 247.5,293.5 247.5,291.5C 248.833,294.167 248.833,296.833 247.5,299.5C 246.167,299.5 244.833,299.5 243.5,299.5C 241.891,296.851 241.057,293.851 241,290.5C 240.167,289.667 239.333,288.833 238.5,288C 241.539,287.736 244.206,288.569 246.5,290.5 Z"/></g>
<g><path style="opacity:1" fill="#7744ba" d="M 246.5,290.5 C 247.167,290.5 247.5,290.833 247.5,291.5C 247.5,293.5 247.5,295.5 247.5,297.5C 243.352,297.166 241.685,294.833 242.5,290.5C 243.833,290.5 245.167,290.5 246.5,290.5 Z"/></g>
<g><path style="opacity:1" fill="#241547" d="M 260.5,290.5 C 259.061,292.588 258.394,294.921 258.5,297.5C 259.833,297.5 261.167,297.5 262.5,297.5C 261.081,298.451 259.415,298.784 257.5,298.5C 257.5,295.833 257.5,293.167 257.5,290.5C 258.5,290.5 259.5,290.5 260.5,290.5 Z"/></g>
<g><path style="opacity:1" fill="#492581" d="M 262.5,297.5 C 261.167,297.5 259.833,297.5 258.5,297.5C 258.394,294.921 259.061,292.588 260.5,290.5C 261.962,289.542 263.295,288.376 264.5,287C 265.635,286.251 266.635,286.417 267.5,287.5C 266.574,291.324 264.908,294.658 262.5,297.5 Z"/></g>
<g><path style="opacity:1" fill="#4a2753" d="M 255.5,291.5 C 255.334,295.846 255.501,300.179 256,304.5C 256.419,303.328 257.085,302.328 258,301.5C 258.387,304.304 257.221,306.304 254.5,307.5C 254.665,304.482 254.498,301.482 254,298.5C 253.617,299.056 253.117,299.389 252.5,299.5C 252.5,297.167 252.5,294.833 252.5,292.5C 253.609,292.443 254.609,292.11 255.5,291.5 Z"/></g>
<g><path style="opacity:1" fill="#22223f" d="M 243.5,299.5 C 244.833,299.5 246.167,299.5 247.5,299.5C 248.391,302.778 249.224,306.111 250,309.5C 250.383,308.944 250.883,308.611 251.5,308.5C 250.439,314.001 249.105,319.334 247.5,324.5C 247.717,321.579 247.051,318.913 245.5,316.5C 246.222,316.082 246.722,315.416 247,314.5C 247.333,314.833 247.667,315.167 248,315.5C 248.167,314.333 248.333,313.167 248.5,312C 247.75,308.17 247.083,304.337 246.5,300.5C 245.209,300.737 244.209,300.404 243.5,299.5 Z"/></g>
<g><path style="opacity:1" fill="#3f5776" d="M 245.5,316.5 C 247.051,318.913 247.717,321.579 247.5,324.5C 247.768,326.099 247.434,327.432 246.5,328.5C 246.137,325.437 245.47,322.437 244.5,319.5C 244.52,318.274 244.853,317.274 245.5,316.5 Z"/></g>
<g><path style="opacity:1" fill="#381360" d="M 254.5,307.5 C 252.479,318.247 250.146,328.914 247.5,339.5C 246.069,340.78 245.402,342.447 245.5,344.5C 245.328,345.492 245.662,346.158 246.5,346.5C 246.5,347.5 246.5,348.5 246.5,349.5C 247.5,349.5 248.5,349.5 249.5,349.5C 247.696,350.381 246.196,351.714 245,353.5C 243.665,357.511 242.331,361.511 241,365.5C 240.489,374.146 239.323,382.646 237.5,391C 237.167,391.167 236.833,391.333 236.5,391.5C 235.919,383.127 236.586,374.794 238.5,366.5C 237.101,362.435 237.767,358.769 240.5,355.5C 240.5,354.5 240.5,353.5 240.5,352.5C 240.833,351.833 241.167,351.167 241.5,350.5C 242.475,347.689 243.142,344.689 243.5,341.5C 244.363,337.055 245.363,332.722 246.5,328.5C 247.434,327.432 247.768,326.099 247.5,324.5C 249.105,319.334 250.439,314.001 251.5,308.5C 251.19,305.287 251.523,302.287 252.5,299.5C 253.117,299.389 253.617,299.056 254,298.5C 254.498,301.482 254.665,304.482 254.5,307.5 Z"/></g>
<g><path style="opacity:1" fill="#7f59c8" d="M 255.5,339.5 C 255.5,339.167 255.5,338.833 255.5,338.5C 255.881,337.069 256.881,336.236 258.5,336C 262.62,335.754 266.62,335.588 270.5,335.5C 267.93,334.777 265.597,333.61 263.5,332C 266.692,327.571 271.025,325.571 276.5,326C 281.145,321.997 280.478,320.663 274.5,322C 272.102,323.018 269.769,324.185 267.5,325.5C 266.749,324.624 266.249,323.624 266,322.5C 264.708,324.249 263.542,326.082 262.5,328C 260.833,328.333 259.167,328.667 257.5,329C 256.303,331.015 254.97,332.849 253.5,334.5C 253.5,331.5 253.5,328.5 253.5,325.5C 254.242,323.574 255.242,321.741 256.5,320C 267.221,311.329 278.888,310.329 291.5,317C 294.167,317.333 296.833,317.667 299.5,318C 296.823,318.249 294.49,319.249 292.5,321C 289.481,325.722 286.648,330.555 284,335.5C 275.547,344.572 266.047,345.905 255.5,339.5 Z"/></g>
<g><path style="opacity:1" fill="#482579" d="M 255.5,338.5 C 254.326,337.486 253.66,336.153 253.5,334.5C 254.97,332.849 256.303,331.015 257.5,329C 259.167,328.667 260.833,328.333 262.5,328C 263.542,326.082 264.708,324.249 266,322.5C 266.249,323.624 266.749,324.624 267.5,325.5C 269.769,324.185 272.102,323.018 274.5,322C 280.478,320.663 281.145,321.997 276.5,326C 271.025,325.571 266.692,327.571 263.5,332C 265.597,333.61 267.93,334.777 270.5,335.5C 266.62,335.588 262.62,335.754 258.5,336C 256.881,336.236 255.881,337.069 255.5,338.5 Z"/></g>
<g><path style="opacity:1" fill="#6845a1" d="M 239.5,335.5 C 239.678,336.695 240.011,337.862 240.5,339C 239.824,340.683 238.824,340.85 237.5,339.5C 237.579,338.07 237.246,336.736 236.5,335.5C 237.614,334.224 238.614,334.224 239.5,335.5 Z"/></g>
<g><path style="opacity:1" fill="#311f4d" d="M 253.5,325.5 C 253.5,328.5 253.5,331.5 253.5,334.5C 253.66,336.153 254.326,337.486 255.5,338.5C 255.5,338.833 255.5,339.167 255.5,339.5C 251.751,340.229 248.417,341.896 245.5,344.5C 245.402,342.447 246.069,340.78 247.5,339.5C 247.56,340.043 247.893,340.376 248.5,340.5C 249.814,339.687 250.981,338.687 252,337.5C 252.176,333.312 252.676,329.312 253.5,325.5 Z"/></g>
<g><path style="opacity:1" fill="#44316e" d="M 239.5,335.5 C 240.906,335.973 241.573,336.973 241.5,338.5C 241.784,340.415 241.451,342.081 240.5,343.5C 238.738,342.738 237.738,341.404 237.5,339.5C 238.824,340.85 239.824,340.683 240.5,339C 240.011,337.862 239.678,336.695 239.5,335.5 Z"/></g>
<g><path style="opacity:1" fill="#180c2a" d="M 241.5,338.5 C 242.167,339.5 242.833,340.5 243.5,341.5C 243.142,344.689 242.475,347.689 241.5,350.5C 241.702,348.05 241.369,345.717 240.5,343.5C 241.451,342.081 241.784,340.415 241.5,338.5 Z"/></g>
<g><path style="opacity:1" fill="#6740ac" d="M 249.5,349.5 C 248.5,349.5 247.5,349.5 246.5,349.5C 246.5,348.5 246.5,347.5 246.5,346.5C 248.526,344.498 250.859,344.164 253.5,345.5C 252.591,347.375 251.257,348.708 249.5,349.5 Z"/></g>
<g><path style="opacity:1" fill="#58522f" d="M 238.5,352.5 C 239.167,352.5 239.833,352.5 240.5,352.5C 240.5,353.5 240.5,354.5 240.5,355.5C 239.833,355.5 239.167,355.5 238.5,355.5C 238.5,354.5 238.5,353.5 238.5,352.5 Z"/></g>
<g><path style="opacity:1" fill="#415f80" d="M 238.5,352.5 C 238.5,353.5 238.5,354.5 238.5,355.5C 237.185,356.476 235.852,357.476 234.5,358.5C 233.288,356.159 233.622,353.993 235.5,352C 236.577,351.53 237.577,351.697 238.5,352.5 Z"/></g>
</svg>
